<svg xmlns="http://www.w3.org/2000/svg" xmlns:xlink="http://www.w3.org/1999/xlink" width="500" zoomAndPan="magnify" viewBox="0 0 375 374.999991" height="500" preserveAspectRatio="xMidYMid meet" version="1.0"><defs><g/><clipPath id="f88d1ef3e3"><path d="M 0.0390625 1 L 19 1 L 19 23 L 0.0390625 23 Z M 0.0390625 1 " clip-rule="nonzero"/></clipPath><clipPath id="edc6e2c916"><rect x="0" width="354" y="0" height="67"/></clipPath></defs><g transform="matrix(1, 0, 0, 1, 11, 154)"><g clip-path="url(#edc6e2c916)"><g clip-path="url(#f88d1ef3e3)"><g fill="#ffffff" fill-opacity="1"><g transform="translate(0.230741, 22.465712)"><g><path d="M 12.453125 -4.234375 C 13.171875 -4.234375 13.863281 -4.34375 14.53125 -4.5625 C 15.207031 -4.78125 15.703125 -4.988281 16.015625 -5.1875 L 16.5 -5.515625 L 18.484375 -1.515625 C 18.421875 -1.472656 18.332031 -1.410156 18.21875 -1.328125 C 18.101562 -1.242188 17.832031 -1.085938 17.40625 -0.859375 C 16.976562 -0.640625 16.523438 -0.445312 16.046875 -0.28125 C 15.566406 -0.113281 14.929688 0.0351562 14.140625 0.171875 C 13.359375 0.304688 12.554688 0.375 11.734375 0.375 C 9.816406 0.375 8 -0.09375 6.28125 -1.03125 C 4.570312 -1.976562 3.191406 -3.273438 2.140625 -4.921875 C 1.097656 -6.566406 0.578125 -8.34375 0.578125 -10.25 C 0.578125 -11.695312 0.882812 -13.085938 1.5 -14.421875 C 2.113281 -15.753906 2.929688 -16.894531 3.953125 -17.84375 C 4.972656 -18.789062 6.164062 -19.546875 7.53125 -20.109375 C 8.894531 -20.671875 10.296875 -20.953125 11.734375 -20.953125 C 13.054688 -20.953125 14.28125 -20.796875 15.40625 -20.484375 C 16.53125 -20.171875 17.328125 -19.851562 17.796875 -19.53125 L 18.484375 -19.0625 L 16.5 -15.078125 C 16.375 -15.171875 16.195312 -15.285156 15.96875 -15.421875 C 15.738281 -15.566406 15.273438 -15.753906 14.578125 -15.984375 C 13.878906 -16.222656 13.171875 -16.34375 12.453125 -16.34375 C 11.316406 -16.34375 10.300781 -16.160156 9.40625 -15.796875 C 8.507812 -15.429688 7.796875 -14.945312 7.265625 -14.34375 C 6.742188 -13.75 6.347656 -13.101562 6.078125 -12.40625 C 5.804688 -11.71875 5.671875 -11.019531 5.671875 -10.3125 C 5.671875 -8.738281 6.253906 -7.332031 7.421875 -6.09375 C 8.597656 -4.851562 10.273438 -4.234375 12.453125 -4.234375 Z M 12.453125 -4.234375 "/></g></g></g></g><g fill="#ffffff" fill-opacity="1"><g transform="translate(19.022251, 22.465712)"><g><path d="M 11.953125 -20.59375 L 20.265625 0 L 15.21875 0 L 13.703125 -4.125 L 5.859375 -4.125 L 4.34375 0 L -0.703125 0 L 7.609375 -20.59375 Z M 12.109375 -8.234375 L 9.8125 -14.21875 L 9.75 -14.21875 L 7.46875 -8.234375 Z M 12.109375 -8.234375 "/></g></g></g><g fill="#ffffff" fill-opacity="1"><g transform="translate(38.587382, 22.465712)"><g><path d="M 1.5 -20.59375 L 9.015625 -20.59375 C 11.109375 -20.59375 12.800781 -20.050781 14.09375 -18.96875 C 15.394531 -17.882812 16.046875 -16.3125 16.046875 -14.25 C 16.046875 -12.1875 15.390625 -10.566406 14.078125 -9.390625 C 12.765625 -8.222656 11.078125 -7.640625 9.015625 -7.640625 L 6.1875 -7.640625 L 6.1875 0 L 1.5 0 Z M 6.1875 -11.375 L 7.515625 -11.375 C 8.554688 -11.375 9.414062 -11.585938 10.09375 -12.015625 C 10.769531 -12.441406 11.109375 -13.132812 11.109375 -14.09375 C 11.109375 -15.082031 10.769531 -15.785156 10.09375 -16.203125 C 9.414062 -16.628906 8.554688 -16.84375 7.515625 -16.84375 L 6.1875 -16.84375 Z M 6.1875 -11.375 "/></g></g></g><g fill="#ffffff" fill-opacity="1"><g transform="translate(55.207762, 22.465712)"><g><path d="M 6.1875 -20.59375 L 6.1875 0 L 1.5 0 L 1.5 -20.59375 Z M 6.1875 -20.59375 "/></g></g></g><g fill="#ffffff" fill-opacity="1"><g transform="translate(61.695975, 22.465712)"><g><path d="M 0.203125 -16.46875 L 0.203125 -20.59375 L 14.671875 -20.59375 L 14.671875 -16.46875 L 9.78125 -16.46875 L 9.78125 0 L 5.09375 0 L 5.09375 -16.46875 Z M 0.203125 -16.46875 "/></g></g></g><g fill="#ffffff" fill-opacity="1"><g transform="translate(75.371379, 22.465712)"><g><path d="M 11.953125 -20.59375 L 20.265625 0 L 15.21875 0 L 13.703125 -4.125 L 5.859375 -4.125 L 4.34375 0 L -0.703125 0 L 7.609375 -20.59375 Z M 12.109375 -8.234375 L 9.8125 -14.21875 L 9.75 -14.21875 L 7.46875 -8.234375 Z M 12.109375 -8.234375 "/></g></g></g><g fill="#ffffff" fill-opacity="1"><g transform="translate(94.93651, 22.465712)"><g><path d="M 6.1875 -20.59375 L 6.1875 -4.125 L 13.28125 -4.125 L 13.28125 0 L 1.5 0 L 1.5 -20.59375 Z M 6.1875 -20.59375 "/></g></g></g><g fill="#ffffff" fill-opacity="1"><g transform="translate(109.036378, 22.465712)"><g><path d="M 18.515625 0 L 17.546875 -12.203125 L 17.421875 -12.203125 L 13.203125 -0.125 L 10.40625 -0.125 L 6.1875 -12.203125 L 6.0625 -12.203125 L 5.09375 0 L 0.40625 0 L 2.25 -20.59375 L 7.234375 -20.59375 L 11.796875 -8.703125 L 16.375 -20.59375 L 21.359375 -20.59375 L 23.203125 0 Z M 18.515625 0 "/></g></g></g><g fill="#ffffff" fill-opacity="1"><g transform="translate(132.644305, 22.465712)"><g><path d="M 0.578125 -10.3125 C 0.578125 -13.28125 1.585938 -15.796875 3.609375 -17.859375 C 5.640625 -19.921875 8.085938 -20.953125 10.953125 -20.953125 C 13.828125 -20.953125 16.269531 -19.925781 18.28125 -17.875 C 20.300781 -15.820312 21.3125 -13.300781 21.3125 -10.3125 C 21.3125 -7.300781 20.320312 -4.765625 18.34375 -2.703125 C 16.363281 -0.648438 13.898438 0.375 10.953125 0.375 C 7.941406 0.375 5.457031 -0.640625 3.5 -2.671875 C 1.550781 -4.710938 0.578125 -7.257812 0.578125 -10.3125 Z M 5.640625 -10.3125 C 5.640625 -9.226562 5.804688 -8.238281 6.140625 -7.34375 C 6.472656 -6.457031 7.054688 -5.707031 7.890625 -5.09375 C 8.722656 -4.476562 9.742188 -4.171875 10.953125 -4.171875 C 12.703125 -4.171875 14.019531 -4.769531 14.90625 -5.96875 C 15.800781 -7.164062 16.25 -8.613281 16.25 -10.3125 C 16.25 -11.988281 15.796875 -13.425781 14.890625 -14.625 C 13.984375 -15.832031 12.671875 -16.4375 10.953125 -16.4375 C 9.253906 -16.4375 7.941406 -15.832031 7.015625 -14.625 C 6.097656 -13.425781 5.640625 -11.988281 5.640625 -10.3125 Z M 5.640625 -10.3125 "/></g></g></g><g fill="#ffffff" fill-opacity="1"><g transform="translate(153.731559, 22.465712)"><g><path d="M 0.203125 -16.46875 L 0.203125 -20.59375 L 14.671875 -20.59375 L 14.671875 -16.46875 L 9.78125 -16.46875 L 9.78125 0 L 5.09375 0 L 5.09375 -16.46875 Z M 0.203125 -16.46875 "/></g></g></g><g fill="#ffffff" fill-opacity="1"><g transform="translate(167.806331, 22.465712)"><g><path d="M 0.578125 -10.3125 C 0.578125 -13.28125 1.585938 -15.796875 3.609375 -17.859375 C 5.640625 -19.921875 8.085938 -20.953125 10.953125 -20.953125 C 13.828125 -20.953125 16.269531 -19.925781 18.28125 -17.875 C 20.300781 -15.820312 21.3125 -13.300781 21.3125 -10.3125 C 21.3125 -7.300781 20.320312 -4.765625 18.34375 -2.703125 C 16.363281 -0.648438 13.898438 0.375 10.953125 0.375 C 7.941406 0.375 5.457031 -0.640625 3.5 -2.671875 C 1.550781 -4.710938 0.578125 -7.257812 0.578125 -10.3125 Z M 5.640625 -10.3125 C 5.640625 -9.226562 5.804688 -8.238281 6.140625 -7.34375 C 6.472656 -6.457031 7.054688 -5.707031 7.890625 -5.09375 C 8.722656 -4.476562 9.742188 -4.171875 10.953125 -4.171875 C 12.703125 -4.171875 14.019531 -4.769531 14.90625 -5.96875 C 15.800781 -7.164062 16.25 -8.613281 16.25 -10.3125 C 16.25 -11.988281 15.796875 -13.425781 14.890625 -14.625 C 13.984375 -15.832031 12.671875 -16.4375 10.953125 -16.4375 C 9.253906 -16.4375 7.941406 -15.832031 7.015625 -14.625 C 6.097656 -13.425781 5.640625 -11.988281 5.640625 -10.3125 Z M 5.640625 -10.3125 "/></g></g></g><g fill="#ffffff" fill-opacity="1"><g transform="translate(189.692323, 22.465712)"><g><path d="M 1.5 -20.59375 L 8.859375 -20.59375 C 10.835938 -20.59375 12.453125 -20.0625 13.703125 -19 C 14.953125 -17.945312 15.578125 -16.4375 15.578125 -14.46875 C 15.578125 -12.957031 15.195312 -11.691406 14.4375 -10.671875 C 13.675781 -9.648438 12.648438 -8.929688 11.359375 -8.515625 L 18.4375 0 L 12.484375 0 L 6.1875 -8.140625 L 6.1875 0 L 1.5 0 Z M 6.1875 -11.453125 L 6.734375 -11.453125 C 7.171875 -11.453125 7.535156 -11.457031 7.828125 -11.46875 C 8.128906 -11.488281 8.472656 -11.546875 8.859375 -11.640625 C 9.242188 -11.742188 9.550781 -11.890625 9.78125 -12.078125 C 10.007812 -12.265625 10.207031 -12.53125 10.375 -12.875 C 10.539062 -13.226562 10.625 -13.648438 10.625 -14.140625 C 10.625 -14.640625 10.539062 -15.0625 10.375 -15.40625 C 10.207031 -15.757812 10.007812 -16.03125 9.78125 -16.21875 C 9.550781 -16.40625 9.242188 -16.546875 8.859375 -16.640625 C 8.472656 -16.742188 8.128906 -16.800781 7.828125 -16.8125 C 7.535156 -16.832031 7.171875 -16.84375 6.734375 -16.84375 L 6.1875 -16.84375 Z M 6.1875 -11.453125 "/></g></g></g><g fill="#ffffff" fill-opacity="1"><g transform="translate(207.560489, 22.465712)"><g><path d="M 12.453125 -4.234375 C 13.171875 -4.234375 13.863281 -4.34375 14.53125 -4.5625 C 15.207031 -4.78125 15.703125 -4.988281 16.015625 -5.1875 L 16.5 -5.515625 L 18.484375 -1.515625 C 18.421875 -1.472656 18.332031 -1.410156 18.21875 -1.328125 C 18.101562 -1.242188 17.832031 -1.085938 17.40625 -0.859375 C 16.976562 -0.640625 16.523438 -0.445312 16.046875 -0.28125 C 15.566406 -0.113281 14.929688 0.0351562 14.140625 0.171875 C 13.359375 0.304688 12.554688 0.375 11.734375 0.375 C 9.816406 0.375 8 -0.09375 6.28125 -1.03125 C 4.570312 -1.976562 3.191406 -3.273438 2.140625 -4.921875 C 1.097656 -6.566406 0.578125 -8.34375 0.578125 -10.25 C 0.578125 -11.695312 0.882812 -13.085938 1.5 -14.421875 C 2.113281 -15.753906 2.929688 -16.894531 3.953125 -17.84375 C 4.972656 -18.789062 6.164062 -19.546875 7.53125 -20.109375 C 8.894531 -20.671875 10.296875 -20.953125 11.734375 -20.953125 C 13.054688 -20.953125 14.28125 -20.796875 15.40625 -20.484375 C 16.53125 -20.171875 17.328125 -19.851562 17.796875 -19.53125 L 18.484375 -19.0625 L 16.5 -15.078125 C 16.375 -15.171875 16.195312 -15.285156 15.96875 -15.421875 C 15.738281 -15.566406 15.273438 -15.753906 14.578125 -15.984375 C 13.878906 -16.222656 13.171875 -16.34375 12.453125 -16.34375 C 11.316406 -16.34375 10.300781 -16.160156 9.40625 -15.796875 C 8.507812 -15.429688 7.796875 -14.945312 7.265625 -14.34375 C 6.742188 -13.75 6.347656 -13.101562 6.078125 -12.40625 C 5.804688 -11.71875 5.671875 -11.019531 5.671875 -10.3125 C 5.671875 -8.738281 6.253906 -7.332031 7.421875 -6.09375 C 8.597656 -4.851562 10.273438 -4.234375 12.453125 -4.234375 Z M 12.453125 -4.234375 "/></g></g></g><g fill="#ffffff" fill-opacity="1"><g transform="translate(226.351984, 22.465712)"><g><path d="M 11.953125 -20.59375 L 20.265625 0 L 15.21875 0 L 13.703125 -4.125 L 5.859375 -4.125 L 4.34375 0 L -0.703125 0 L 7.609375 -20.59375 Z M 12.109375 -8.234375 L 9.8125 -14.21875 L 9.75 -14.21875 L 7.46875 -8.234375 Z M 12.109375 -8.234375 "/></g></g></g><g fill="#ffffff" fill-opacity="1"><g transform="translate(245.91713, 22.465712)"><g><path d="M 1.5 -20.59375 L 8.859375 -20.59375 C 10.835938 -20.59375 12.453125 -20.0625 13.703125 -19 C 14.953125 -17.945312 15.578125 -16.4375 15.578125 -14.46875 C 15.578125 -12.957031 15.195312 -11.691406 14.4375 -10.671875 C 13.675781 -9.648438 12.648438 -8.929688 11.359375 -8.515625 L 18.4375 0 L 12.484375 0 L 6.1875 -8.140625 L 6.1875 0 L 1.5 0 Z M 6.1875 -11.453125 L 6.734375 -11.453125 C 7.171875 -11.453125 7.535156 -11.457031 7.828125 -11.46875 C 8.128906 -11.488281 8.472656 -11.546875 8.859375 -11.640625 C 9.242188 -11.742188 9.550781 -11.890625 9.78125 -12.078125 C 10.007812 -12.265625 10.207031 -12.53125 10.375 -12.875 C 10.539062 -13.226562 10.625 -13.648438 10.625 -14.140625 C 10.625 -14.640625 10.539062 -15.0625 10.375 -15.40625 C 10.207031 -15.757812 10.007812 -16.03125 9.78125 -16.21875 C 9.550781 -16.40625 9.242188 -16.546875 8.859375 -16.640625 C 8.472656 -16.742188 8.128906 -16.800781 7.828125 -16.8125 C 7.535156 -16.832031 7.171875 -16.84375 6.734375 -16.84375 L 6.1875 -16.84375 Z M 6.1875 -11.453125 "/></g></g></g><g fill="#ffffff" fill-opacity="1"><g transform="translate(263.785266, 22.465712)"><g><path d="M 9.078125 -20.953125 C 10.191406 -20.953125 11.28125 -20.789062 12.34375 -20.46875 C 13.414062 -20.144531 14.207031 -19.828125 14.71875 -19.515625 L 15.46875 -19.015625 L 13.578125 -15.265625 C 13.421875 -15.367188 13.207031 -15.5 12.9375 -15.65625 C 12.675781 -15.8125 12.179688 -16.019531 11.453125 -16.28125 C 10.722656 -16.550781 10.039062 -16.6875 9.40625 -16.6875 C 8.625 -16.6875 8.019531 -16.519531 7.59375 -16.1875 C 7.175781 -15.863281 6.96875 -15.414062 6.96875 -14.84375 C 6.96875 -14.5625 7.066406 -14.300781 7.265625 -14.0625 C 7.460938 -13.820312 7.800781 -13.5625 8.28125 -13.28125 C 8.769531 -13.007812 9.195312 -12.789062 9.5625 -12.625 C 9.925781 -12.457031 10.488281 -12.207031 11.25 -11.875 C 12.582031 -11.3125 13.71875 -10.539062 14.65625 -9.5625 C 15.59375 -8.59375 16.0625 -7.492188 16.0625 -6.265625 C 16.0625 -5.078125 15.847656 -4.039062 15.421875 -3.15625 C 15.003906 -2.28125 14.425781 -1.59375 13.6875 -1.09375 C 12.945312 -0.59375 12.125 -0.222656 11.21875 0.015625 C 10.320312 0.253906 9.351562 0.375 8.3125 0.375 C 7.414062 0.375 6.53125 0.28125 5.65625 0.09375 C 4.789062 -0.0820312 4.066406 -0.304688 3.484375 -0.578125 C 2.910156 -0.859375 2.390625 -1.128906 1.921875 -1.390625 C 1.453125 -1.660156 1.109375 -1.890625 0.890625 -2.078125 L 0.578125 -2.34375 L 2.921875 -6.28125 C 3.117188 -6.113281 3.390625 -5.898438 3.734375 -5.640625 C 4.085938 -5.390625 4.707031 -5.046875 5.59375 -4.609375 C 6.488281 -4.179688 7.273438 -3.96875 7.953125 -3.96875 C 9.929688 -3.96875 10.921875 -4.640625 10.921875 -5.984375 C 10.921875 -6.265625 10.847656 -6.523438 10.703125 -6.765625 C 10.566406 -7.015625 10.320312 -7.257812 9.96875 -7.5 C 9.613281 -7.738281 9.296875 -7.925781 9.015625 -8.0625 C 8.742188 -8.207031 8.296875 -8.425781 7.671875 -8.71875 C 7.046875 -9.007812 6.582031 -9.226562 6.28125 -9.375 C 5.039062 -10 4.078125 -10.769531 3.390625 -11.6875 C 2.710938 -12.613281 2.375 -13.609375 2.375 -14.671875 C 2.375 -16.515625 3.054688 -18.019531 4.421875 -19.1875 C 5.785156 -20.363281 7.335938 -20.953125 9.078125 -20.953125 Z M 9.078125 -20.953125 "/></g></g></g><g fill="#ffffff" fill-opacity="1"><g transform="translate(280.555408, 22.465712)"><g><path d="M 4.34375 -5.34375 C 5.144531 -5.34375 5.820312 -5.0625 6.375 -4.5 C 6.9375 -3.945312 7.21875 -3.269531 7.21875 -2.46875 C 7.21875 -1.6875 6.9375 -1.015625 6.375 -0.453125 C 5.820312 0.0976562 5.144531 0.375 4.34375 0.375 C 3.5625 0.375 2.890625 0.0976562 2.328125 -0.453125 C 1.773438 -1.015625 1.5 -1.6875 1.5 -2.46875 C 1.5 -3.269531 1.773438 -3.945312 2.328125 -4.5 C 2.890625 -5.0625 3.5625 -5.34375 4.34375 -5.34375 Z M 4.34375 -5.34375 "/></g></g></g><g fill="#ffffff" fill-opacity="1"><g transform="translate(288.46613, 22.465712)"><g><path d="M 12.453125 -4.234375 C 13.171875 -4.234375 13.863281 -4.34375 14.53125 -4.5625 C 15.207031 -4.78125 15.703125 -4.988281 16.015625 -5.1875 L 16.5 -5.515625 L 18.484375 -1.515625 C 18.421875 -1.472656 18.332031 -1.410156 18.21875 -1.328125 C 18.101562 -1.242188 17.832031 -1.085938 17.40625 -0.859375 C 16.976562 -0.640625 16.523438 -0.445312 16.046875 -0.28125 C 15.566406 -0.113281 14.929688 0.0351562 14.140625 0.171875 C 13.359375 0.304688 12.554688 0.375 11.734375 0.375 C 9.816406 0.375 8 -0.09375 6.28125 -1.03125 C 4.570312 -1.976562 3.191406 -3.273438 2.140625 -4.921875 C 1.097656 -6.566406 0.578125 -8.34375 0.578125 -10.25 C 0.578125 -11.695312 0.882812 -13.085938 1.5 -14.421875 C 2.113281 -15.753906 2.929688 -16.894531 3.953125 -17.84375 C 4.972656 -18.789062 6.164062 -19.546875 7.53125 -20.109375 C 8.894531 -20.671875 10.296875 -20.953125 11.734375 -20.953125 C 13.054688 -20.953125 14.28125 -20.796875 15.40625 -20.484375 C 16.53125 -20.171875 17.328125 -19.851562 17.796875 -19.53125 L 18.484375 -19.0625 L 16.5 -15.078125 C 16.375 -15.171875 16.195312 -15.285156 15.96875 -15.421875 C 15.738281 -15.566406 15.273438 -15.753906 14.578125 -15.984375 C 13.878906 -16.222656 13.171875 -16.34375 12.453125 -16.34375 C 11.316406 -16.34375 10.300781 -16.160156 9.40625 -15.796875 C 8.507812 -15.429688 7.796875 -14.945312 7.265625 -14.34375 C 6.742188 -13.75 6.347656 -13.101562 6.078125 -12.40625 C 5.804688 -11.71875 5.671875 -11.019531 5.671875 -10.3125 C 5.671875 -8.738281 6.253906 -7.332031 7.421875 -6.09375 C 8.597656 -4.851562 10.273438 -4.234375 12.453125 -4.234375 Z M 12.453125 -4.234375 "/></g></g></g><g fill="#ffffff" fill-opacity="1"><g transform="translate(307.257655, 22.465712)"><g><path d="M 0.578125 -10.3125 C 0.578125 -13.28125 1.585938 -15.796875 3.609375 -17.859375 C 5.640625 -19.921875 8.085938 -20.953125 10.953125 -20.953125 C 13.828125 -20.953125 16.269531 -19.925781 18.28125 -17.875 C 20.300781 -15.820312 21.3125 -13.300781 21.3125 -10.3125 C 21.3125 -7.300781 20.320312 -4.765625 18.34375 -2.703125 C 16.363281 -0.648438 13.898438 0.375 10.953125 0.375 C 7.941406 0.375 5.457031 -0.640625 3.5 -2.671875 C 1.550781 -4.710938 0.578125 -7.257812 0.578125 -10.3125 Z M 5.640625 -10.3125 C 5.640625 -9.226562 5.804688 -8.238281 6.140625 -7.34375 C 6.472656 -6.457031 7.054688 -5.707031 7.890625 -5.09375 C 8.722656 -4.476562 9.742188 -4.171875 10.953125 -4.171875 C 12.703125 -4.171875 14.019531 -4.769531 14.90625 -5.96875 C 15.800781 -7.164062 16.25 -8.613281 16.25 -10.3125 C 16.25 -11.988281 15.796875 -13.425781 14.890625 -14.625 C 13.984375 -15.832031 12.671875 -16.4375 10.953125 -16.4375 C 9.253906 -16.4375 7.941406 -15.832031 7.015625 -14.625 C 6.097656 -13.425781 5.640625 -11.988281 5.640625 -10.3125 Z M 5.640625 -10.3125 "/></g></g></g><g fill="#ffffff" fill-opacity="1"><g transform="translate(329.143632, 22.465712)"><g><path d="M 18.515625 0 L 17.546875 -12.203125 L 17.421875 -12.203125 L 13.203125 -0.125 L 10.40625 -0.125 L 6.1875 -12.203125 L 6.0625 -12.203125 L 5.09375 0 L 0.40625 0 L 2.25 -20.59375 L 7.234375 -20.59375 L 11.796875 -8.703125 L 16.375 -20.59375 L 21.359375 -20.59375 L 23.203125 0 Z M 18.515625 0 "/></g></g></g><g fill="#ffffff" fill-opacity="1"><g transform="translate(65.528971, 57.019484)"><g><path d="M 8.609375 5.265625 L 5.734375 6.484375 C 5.617188 6.335938 5.460938 6.128906 5.265625 5.859375 C 5.066406 5.597656 4.71875 5.007812 4.21875 4.09375 C 3.71875 3.175781 3.273438 2.210938 2.890625 1.203125 C 2.515625 0.203125 2.164062 -1.078125 1.84375 -2.640625 C 1.53125 -4.203125 1.375 -5.789062 1.375 -7.40625 C 1.375 -9.070312 1.535156 -10.703125 1.859375 -12.296875 C 2.179688 -13.898438 2.578125 -15.25 3.046875 -16.34375 C 3.515625 -17.4375 3.972656 -18.414062 4.421875 -19.28125 C 4.878906 -20.15625 5.269531 -20.796875 5.59375 -21.203125 L 6.09375 -21.828125 L 8.953125 -20.609375 C 8.859375 -20.492188 8.726562 -20.320312 8.5625 -20.09375 C 8.40625 -19.875 8.128906 -19.351562 7.734375 -18.53125 C 7.335938 -17.71875 6.976562 -16.84375 6.65625 -15.90625 C 6.34375 -14.976562 6.0625 -13.742188 5.8125 -12.203125 C 5.5625 -10.671875 5.4375 -9.070312 5.4375 -7.40625 C 5.4375 -5.832031 5.546875 -4.320312 5.765625 -2.875 C 5.984375 -1.425781 6.25 -0.234375 6.5625 0.703125 C 6.875 1.648438 7.179688 2.484375 7.484375 3.203125 C 7.796875 3.929688 8.0625 4.460938 8.28125 4.796875 Z M 8.609375 5.265625 "/></g></g></g><g fill="#ffffff" fill-opacity="1"><g transform="translate(75.58605, 57.019484)"><g><path d="M 15.296875 -15.765625 C 15.296875 -13.691406 14.414062 -12.140625 12.65625 -11.109375 C 13.75 -10.609375 14.625 -9.890625 15.28125 -8.953125 C 15.9375 -8.023438 16.265625 -6.890625 16.265625 -5.546875 C 16.265625 -3.859375 15.488281 -2.445312 13.9375 -1.3125 C 12.382812 -0.1875 10.597656 0.375 8.578125 0.375 C 6.515625 0.375 4.710938 -0.1875 3.171875 -1.3125 C 1.640625 -2.4375 0.875 -3.847656 0.875 -5.546875 C 0.875 -8.148438 2.070312 -10.003906 4.46875 -11.109375 C 2.65625 -12.140625 1.75 -13.691406 1.75 -15.765625 C 1.75 -17.234375 2.441406 -18.460938 3.828125 -19.453125 C 5.210938 -20.453125 6.789062 -20.953125 8.5625 -20.953125 C 10.375 -20.953125 11.945312 -20.457031 13.28125 -19.46875 C 14.625 -18.476562 15.296875 -17.242188 15.296875 -15.765625 Z M 10.859375 -15.09375 C 10.859375 -15.757812 10.644531 -16.3125 10.21875 -16.75 C 9.789062 -17.195312 9.242188 -17.421875 8.578125 -17.421875 C 7.910156 -17.421875 7.359375 -17.195312 6.921875 -16.75 C 6.484375 -16.3125 6.265625 -15.757812 6.265625 -15.09375 C 6.265625 -14.425781 6.488281 -13.875 6.9375 -13.4375 C 7.382812 -13.007812 7.929688 -12.796875 8.578125 -12.796875 C 9.242188 -12.796875 9.789062 -13.007812 10.21875 -13.4375 C 10.644531 -13.863281 10.859375 -14.414062 10.859375 -15.09375 Z M 6.703125 -8.171875 C 6.210938 -7.679688 5.96875 -7.050781 5.96875 -6.28125 C 5.96875 -5.519531 6.207031 -4.894531 6.6875 -4.40625 C 7.164062 -3.914062 7.789062 -3.671875 8.5625 -3.671875 C 9.3125 -3.671875 9.929688 -3.914062 10.421875 -4.40625 C 10.921875 -4.894531 11.171875 -5.519531 11.171875 -6.28125 C 11.171875 -7.050781 10.914062 -7.679688 10.40625 -8.171875 C 9.90625 -8.660156 9.289062 -8.90625 8.5625 -8.90625 C 7.8125 -8.90625 7.191406 -8.660156 6.703125 -8.171875 Z M 6.703125 -8.171875 "/></g></g></g><g fill="#ffffff" fill-opacity="1"><g transform="translate(92.730494, 57.019484)"><g><path d="M 17.796875 -20.59375 L 17.796875 -19.21875 L 6.90625 0 L 1.375 0 L 10.859375 -16.46875 L 2 -16.46875 L 2 -20.59375 Z M 17.796875 -20.59375 "/></g></g></g><g fill="#ffffff" fill-opacity="1"><g transform="translate(109.899894, 57.019484)"><g><path d="M 17.796875 -20.59375 L 17.796875 -19.21875 L 6.90625 0 L 1.375 0 L 10.859375 -16.46875 L 2 -16.46875 L 2 -20.59375 Z M 17.796875 -20.59375 "/></g></g></g><g fill="#ffffff" fill-opacity="1"><g transform="translate(127.069294, 57.019484)"><g><path d="M 4.3125 6.484375 L 1.453125 5.265625 C 1.535156 5.148438 1.644531 4.976562 1.78125 4.75 C 1.925781 4.53125 2.179688 4.023438 2.546875 3.234375 C 2.910156 2.441406 3.234375 1.59375 3.515625 0.6875 C 3.796875 -0.207031 4.046875 -1.382812 4.265625 -2.84375 C 4.492188 -4.3125 4.609375 -5.832031 4.609375 -7.40625 C 4.609375 -9.070312 4.488281 -10.664062 4.25 -12.1875 C 4.007812 -13.707031 3.710938 -14.957031 3.359375 -15.9375 C 3.015625 -16.925781 2.671875 -17.785156 2.328125 -18.515625 C 1.992188 -19.242188 1.703125 -19.773438 1.453125 -20.109375 L 1.09375 -20.609375 L 3.96875 -21.828125 C 4.101562 -21.679688 4.273438 -21.46875 4.484375 -21.1875 C 4.691406 -20.90625 5.0625 -20.285156 5.59375 -19.328125 C 6.132812 -18.367188 6.613281 -17.363281 7.03125 -16.3125 C 7.445312 -15.269531 7.828125 -13.941406 8.171875 -12.328125 C 8.515625 -10.710938 8.6875 -9.070312 8.6875 -7.40625 C 8.6875 -5.789062 8.535156 -4.207031 8.234375 -2.65625 C 7.929688 -1.113281 7.5625 0.179688 7.125 1.234375 C 6.695312 2.285156 6.269531 3.222656 5.84375 4.046875 C 5.425781 4.878906 5.066406 5.492188 4.765625 5.890625 Z M 4.3125 6.484375 "/></g></g></g><g fill="#ffffff" fill-opacity="1"><g transform="translate(137.126373, 57.019484)"><g><path d="M 1.5 -9.140625 L 9.53125 -9.140625 L 9.53125 -5.3125 L 1.5 -5.3125 Z M 1.5 -9.140625 "/></g></g></g><g fill="#ffffff" fill-opacity="1"><g transform="translate(147.357986, 57.019484)"><g><path d="M 12.453125 -4.234375 C 13.171875 -4.234375 13.863281 -4.34375 14.53125 -4.5625 C 15.207031 -4.78125 15.703125 -4.988281 16.015625 -5.1875 L 16.5 -5.515625 L 18.484375 -1.515625 C 18.421875 -1.472656 18.332031 -1.410156 18.21875 -1.328125 C 18.101562 -1.242188 17.832031 -1.085938 17.40625 -0.859375 C 16.976562 -0.640625 16.523438 -0.445312 16.046875 -0.28125 C 15.566406 -0.113281 14.929688 0.0351562 14.140625 0.171875 C 13.359375 0.304688 12.554688 0.375 11.734375 0.375 C 9.816406 0.375 8 -0.09375 6.28125 -1.03125 C 4.570312 -1.976562 3.191406 -3.273438 2.140625 -4.921875 C 1.097656 -6.566406 0.578125 -8.34375 0.578125 -10.25 C 0.578125 -11.695312 0.882812 -13.085938 1.5 -14.421875 C 2.113281 -15.753906 2.929688 -16.894531 3.953125 -17.84375 C 4.972656 -18.789062 6.164062 -19.546875 7.53125 -20.109375 C 8.894531 -20.671875 10.296875 -20.953125 11.734375 -20.953125 C 13.054688 -20.953125 14.28125 -20.796875 15.40625 -20.484375 C 16.53125 -20.171875 17.328125 -19.851562 17.796875 -19.53125 L 18.484375 -19.0625 L 16.5 -15.078125 C 16.375 -15.171875 16.195312 -15.285156 15.96875 -15.421875 C 15.738281 -15.566406 15.273438 -15.753906 14.578125 -15.984375 C 13.878906 -16.222656 13.171875 -16.34375 12.453125 -16.34375 C 11.316406 -16.34375 10.300781 -16.160156 9.40625 -15.796875 C 8.507812 -15.429688 7.796875 -14.945312 7.265625 -14.34375 C 6.742188 -13.75 6.347656 -13.101562 6.078125 -12.40625 C 5.804688 -11.71875 5.671875 -11.019531 5.671875 -10.3125 C 5.671875 -8.738281 6.253906 -7.332031 7.421875 -6.09375 C 8.597656 -4.851562 10.273438 -4.234375 12.453125 -4.234375 Z M 12.453125 -4.234375 "/></g></g></g><g fill="#ffffff" fill-opacity="1"><g transform="translate(166.149496, 57.019484)"><g><path d="M 18.515625 0 L 17.546875 -12.203125 L 17.421875 -12.203125 L 13.203125 -0.125 L 10.40625 -0.125 L 6.1875 -12.203125 L 6.0625 -12.203125 L 5.09375 0 L 0.40625 0 L 2.25 -20.59375 L 7.234375 -20.59375 L 11.796875 -8.703125 L 16.375 -20.59375 L 21.359375 -20.59375 L 23.203125 0 Z M 18.515625 0 "/></g></g></g><g fill="#ffffff" fill-opacity="1"><g transform="translate(188.958685, 57.019484)"><g><path d="M 12.453125 -4.234375 C 13.171875 -4.234375 13.863281 -4.34375 14.53125 -4.5625 C 15.207031 -4.78125 15.703125 -4.988281 16.015625 -5.1875 L 16.5 -5.515625 L 18.484375 -1.515625 C 18.421875 -1.472656 18.332031 -1.410156 18.21875 -1.328125 C 18.101562 -1.242188 17.832031 -1.085938 17.40625 -0.859375 C 16.976562 -0.640625 16.523438 -0.445312 16.046875 -0.28125 C 15.566406 -0.113281 14.929688 0.0351562 14.140625 0.171875 C 13.359375 0.304688 12.554688 0.375 11.734375 0.375 C 9.816406 0.375 8 -0.09375 6.28125 -1.03125 C 4.570312 -1.976562 3.191406 -3.273438 2.140625 -4.921875 C 1.097656 -6.566406 0.578125 -8.34375 0.578125 -10.25 C 0.578125 -11.695312 0.882812 -13.085938 1.5 -14.421875 C 2.113281 -15.753906 2.929688 -16.894531 3.953125 -17.84375 C 4.972656 -18.789062 6.164062 -19.546875 7.53125 -20.109375 C 8.894531 -20.671875 10.296875 -20.953125 11.734375 -20.953125 C 13.054688 -20.953125 14.28125 -20.796875 15.40625 -20.484375 C 16.53125 -20.171875 17.328125 -19.851562 17.796875 -19.53125 L 18.484375 -19.0625 L 16.5 -15.078125 C 16.375 -15.171875 16.195312 -15.285156 15.96875 -15.421875 C 15.738281 -15.566406 15.273438 -15.753906 14.578125 -15.984375 C 13.878906 -16.222656 13.171875 -16.34375 12.453125 -16.34375 C 11.316406 -16.34375 10.300781 -16.160156 9.40625 -15.796875 C 8.507812 -15.429688 7.796875 -14.945312 7.265625 -14.34375 C 6.742188 -13.75 6.347656 -13.101562 6.078125 -12.40625 C 5.804688 -11.71875 5.671875 -11.019531 5.671875 -10.3125 C 5.671875 -8.738281 6.253906 -7.332031 7.421875 -6.09375 C 8.597656 -4.851562 10.273438 -4.234375 12.453125 -4.234375 Z M 12.453125 -4.234375 "/></g></g></g><g fill="#ffffff" fill-opacity="1"><g transform="translate(207.75021, 57.019484)"><g><path d="M 1.5 -9.140625 L 9.53125 -9.140625 L 9.53125 -5.3125 L 1.5 -5.3125 Z M 1.5 -9.140625 "/></g></g></g><g fill="#ffffff" fill-opacity="1"><g transform="translate(218.780546, 57.019484)"><g><path d="M 15.296875 -15.765625 C 15.296875 -13.691406 14.414062 -12.140625 12.65625 -11.109375 C 13.75 -10.609375 14.625 -9.890625 15.28125 -8.953125 C 15.9375 -8.023438 16.265625 -6.890625 16.265625 -5.546875 C 16.265625 -3.859375 15.488281 -2.445312 13.9375 -1.3125 C 12.382812 -0.1875 10.597656 0.375 8.578125 0.375 C 6.515625 0.375 4.710938 -0.1875 3.171875 -1.3125 C 1.640625 -2.4375 0.875 -3.847656 0.875 -5.546875 C 0.875 -8.148438 2.070312 -10.003906 4.46875 -11.109375 C 2.65625 -12.140625 1.75 -13.691406 1.75 -15.765625 C 1.75 -17.234375 2.441406 -18.460938 3.828125 -19.453125 C 5.210938 -20.453125 6.789062 -20.953125 8.5625 -20.953125 C 10.375 -20.953125 11.945312 -20.457031 13.28125 -19.46875 C 14.625 -18.476562 15.296875 -17.242188 15.296875 -15.765625 Z M 10.859375 -15.09375 C 10.859375 -15.757812 10.644531 -16.3125 10.21875 -16.75 C 9.789062 -17.195312 9.242188 -17.421875 8.578125 -17.421875 C 7.910156 -17.421875 7.359375 -17.195312 6.921875 -16.75 C 6.484375 -16.3125 6.265625 -15.757812 6.265625 -15.09375 C 6.265625 -14.425781 6.488281 -13.875 6.9375 -13.4375 C 7.382812 -13.007812 7.929688 -12.796875 8.578125 -12.796875 C 9.242188 -12.796875 9.789062 -13.007812 10.21875 -13.4375 C 10.644531 -13.863281 10.859375 -14.414062 10.859375 -15.09375 Z M 6.703125 -8.171875 C 6.210938 -7.679688 5.96875 -7.050781 5.96875 -6.28125 C 5.96875 -5.519531 6.207031 -4.894531 6.6875 -4.40625 C 7.164062 -3.914062 7.789062 -3.671875 8.5625 -3.671875 C 9.3125 -3.671875 9.929688 -3.914062 10.421875 -4.40625 C 10.921875 -4.894531 11.171875 -5.519531 11.171875 -6.28125 C 11.171875 -7.050781 10.914062 -7.679688 10.40625 -8.171875 C 9.90625 -8.660156 9.289062 -8.90625 8.5625 -8.90625 C 7.8125 -8.90625 7.191406 -8.660156 6.703125 -8.171875 Z M 6.703125 -8.171875 "/></g></g></g><g fill="#ffffff" fill-opacity="1"><g transform="translate(235.924991, 57.019484)"><g><path d="M 15.296875 -15.765625 C 15.296875 -13.691406 14.414062 -12.140625 12.65625 -11.109375 C 13.75 -10.609375 14.625 -9.890625 15.28125 -8.953125 C 15.9375 -8.023438 16.265625 -6.890625 16.265625 -5.546875 C 16.265625 -3.859375 15.488281 -2.445312 13.9375 -1.3125 C 12.382812 -0.1875 10.597656 0.375 8.578125 0.375 C 6.515625 0.375 4.710938 -0.1875 3.171875 -1.3125 C 1.640625 -2.4375 0.875 -3.847656 0.875 -5.546875 C 0.875 -8.148438 2.070312 -10.003906 4.46875 -11.109375 C 2.65625 -12.140625 1.75 -13.691406 1.75 -15.765625 C 1.75 -17.234375 2.441406 -18.460938 3.828125 -19.453125 C 5.210938 -20.453125 6.789062 -20.953125 8.5625 -20.953125 C 10.375 -20.953125 11.945312 -20.457031 13.28125 -19.46875 C 14.625 -18.476562 15.296875 -17.242188 15.296875 -15.765625 Z M 10.859375 -15.09375 C 10.859375 -15.757812 10.644531 -16.3125 10.21875 -16.75 C 9.789062 -17.195312 9.242188 -17.421875 8.578125 -17.421875 C 7.910156 -17.421875 7.359375 -17.195312 6.921875 -16.75 C 6.484375 -16.3125 6.265625 -15.757812 6.265625 -15.09375 C 6.265625 -14.425781 6.488281 -13.875 6.9375 -13.4375 C 7.382812 -13.007812 7.929688 -12.796875 8.578125 -12.796875 C 9.242188 -12.796875 9.789062 -13.007812 10.21875 -13.4375 C 10.644531 -13.863281 10.859375 -14.414062 10.859375 -15.09375 Z M 6.703125 -8.171875 C 6.210938 -7.679688 5.96875 -7.050781 5.96875 -6.28125 C 5.96875 -5.519531 6.207031 -4.894531 6.6875 -4.40625 C 7.164062 -3.914062 7.789062 -3.671875 8.5625 -3.671875 C 9.3125 -3.671875 9.929688 -3.914062 10.421875 -4.40625 C 10.921875 -4.894531 11.171875 -5.519531 11.171875 -6.28125 C 11.171875 -7.050781 10.914062 -7.679688 10.40625 -8.171875 C 9.90625 -8.660156 9.289062 -8.90625 8.5625 -8.90625 C 7.8125 -8.90625 7.191406 -8.660156 6.703125 -8.171875 Z M 6.703125 -8.171875 "/></g></g></g><g fill="#ffffff" fill-opacity="1"><g transform="translate(253.069435, 57.019484)"><g><path d="M 14.46875 -20.59375 L 8.40625 -13.53125 C 8.757812 -13.726562 9.25 -13.828125 9.875 -13.828125 C 10.613281 -13.828125 11.351562 -13.671875 12.09375 -13.359375 C 12.84375 -13.054688 13.546875 -12.613281 14.203125 -12.03125 C 14.867188 -11.457031 15.40625 -10.695312 15.8125 -9.75 C 16.226562 -8.800781 16.4375 -7.753906 16.4375 -6.609375 C 16.4375 -5.441406 16.21875 -4.394531 15.78125 -3.46875 C 15.34375 -2.550781 14.753906 -1.820312 14.015625 -1.28125 C 13.273438 -0.738281 12.460938 -0.328125 11.578125 -0.046875 C 10.691406 0.234375 9.769531 0.375 8.8125 0.375 C 6.5 0.375 4.550781 -0.296875 2.96875 -1.640625 C 1.382812 -2.992188 0.59375 -4.648438 0.59375 -6.609375 C 0.59375 -8.273438 0.828125 -9.644531 1.296875 -10.71875 C 1.765625 -11.789062 2.613281 -13.160156 3.84375 -14.828125 L 8.6875 -20.59375 Z M 5.46875 -6.609375 C 5.46875 -5.710938 5.757812 -4.96875 6.34375 -4.375 C 6.925781 -3.789062 7.671875 -3.5 8.578125 -3.5 C 9.492188 -3.5 10.25 -3.789062 10.84375 -4.375 C 11.445312 -4.96875 11.75 -5.710938 11.75 -6.609375 C 11.75 -7.523438 11.445312 -8.285156 10.84375 -8.890625 C 10.238281 -9.503906 9.484375 -9.8125 8.578125 -9.8125 C 7.710938 -9.8125 6.976562 -9.503906 6.375 -8.890625 C 5.769531 -8.285156 5.46875 -7.523438 5.46875 -6.609375 Z M 5.46875 -6.609375 "/></g></g></g><g fill="#ffffff" fill-opacity="1"><g transform="translate(270.263791, 57.019484)"><g><path d="M 14.46875 -20.59375 L 8.40625 -13.53125 C 8.757812 -13.726562 9.25 -13.828125 9.875 -13.828125 C 10.613281 -13.828125 11.351562 -13.671875 12.09375 -13.359375 C 12.84375 -13.054688 13.546875 -12.613281 14.203125 -12.03125 C 14.867188 -11.457031 15.40625 -10.695312 15.8125 -9.75 C 16.226562 -8.800781 16.4375 -7.753906 16.4375 -6.609375 C 16.4375 -5.441406 16.21875 -4.394531 15.78125 -3.46875 C 15.34375 -2.550781 14.753906 -1.820312 14.015625 -1.28125 C 13.273438 -0.738281 12.460938 -0.328125 11.578125 -0.046875 C 10.691406 0.234375 9.769531 0.375 8.8125 0.375 C 6.5 0.375 4.550781 -0.296875 2.96875 -1.640625 C 1.382812 -2.992188 0.59375 -4.648438 0.59375 -6.609375 C 0.59375 -8.273438 0.828125 -9.644531 1.296875 -10.71875 C 1.765625 -11.789062 2.613281 -13.160156 3.84375 -14.828125 L 8.6875 -20.59375 Z M 5.46875 -6.609375 C 5.46875 -5.710938 5.757812 -4.96875 6.34375 -4.375 C 6.925781 -3.789062 7.671875 -3.5 8.578125 -3.5 C 9.492188 -3.5 10.25 -3.789062 10.84375 -4.375 C 11.445312 -4.96875 11.75 -5.710938 11.75 -6.609375 C 11.75 -7.523438 11.445312 -8.285156 10.84375 -8.890625 C 10.238281 -9.503906 9.484375 -9.8125 8.578125 -9.8125 C 7.710938 -9.8125 6.976562 -9.503906 6.375 -8.890625 C 5.769531 -8.285156 5.46875 -7.523438 5.46875 -6.609375 Z M 5.46875 -6.609375 "/></g></g></g></g></g></svg>